<?xml version="1.0" encoding="UTF-8" standalone="no"?>
<!DOCTYPE svg PUBLIC "-//W3C//DTD SVG 1.1//EN"
 "http://www.w3.org/Graphics/SVG/1.1/DTD/svg11.dtd">
<!-- Generated by graphviz version 9.0.0 (20230911.1827)
 -->
<!-- Title: G Pages: 1 -->
<svg width="262pt" height="173pt"
 viewBox="0.00 0.00 262.00 172.50" xmlns="http://www.w3.org/2000/svg" xmlns:xlink="http://www.w3.org/1999/xlink">
<g id="graph0" class="graph" transform="scale(1 1) rotate(0) translate(4 168.5)">
<title>G</title>
<polygon fill="white" stroke="none" points="-4,4 -4,-168.5 258,-168.5 258,4 -4,4"/>
<g id="clust1" class="cluster">
<title>cluster_simple_component</title>
<polygon fill="lightblue" stroke="lightblue" points="8,-8 8,-156.5 246,-156.5 246,-8 8,-8"/>
<text text-anchor="middle" x="127" y="-139.2" font-family="Times,serif" font-size="14.00">Simple component</text>
</g>
<!-- s1r -->
<g id="node1" class="node">
<title>s1r</title>
<ellipse fill="white" stroke="white" cx="127" cy="-106" rx="28.83" ry="18"/>
<text text-anchor="middle" x="127" y="-100.95" font-family="Times,serif" font-size="14.00">Root</text>
</g>
<!-- s1n1 -->
<g id="node2" class="node">
<title>s1n1</title>
<ellipse fill="white" stroke="white" cx="47" cy="-34" rx="30.88" ry="18"/>
<text text-anchor="middle" x="47" y="-28.95" font-family="Times,serif" font-size="14.00">Node</text>
</g>
<!-- s1r&#45;&gt;s1n1 -->
<g id="edge1" class="edge">
<title>s1r&#45;&gt;s1n1</title>
<path fill="none" stroke="black" d="M110.81,-90.83C99.68,-81.1 84.69,-67.98 72.03,-56.9"/>
<polygon fill="black" stroke="black" points="74.69,-54.57 64.85,-50.62 70.08,-59.84 74.69,-54.57"/>
</g>
<!-- s1n2 -->
<g id="node3" class="node">
<title>s1n2</title>
<ellipse fill="white" stroke="white" cx="127" cy="-34" rx="30.88" ry="18"/>
<text text-anchor="middle" x="127" y="-28.95" font-family="Times,serif" font-size="14.00">Node</text>
</g>
<!-- s1r&#45;&gt;s1n2 -->
<g id="edge2" class="edge">
<title>s1r&#45;&gt;s1n2</title>
<path fill="none" stroke="black" d="M127,-87.7C127,-80.41 127,-71.73 127,-63.54"/>
<polygon fill="black" stroke="black" points="130.5,-63.62 127,-53.62 123.5,-63.62 130.5,-63.62"/>
</g>
<!-- s1n3 -->
<g id="node4" class="node">
<title>s1n3</title>
<ellipse fill="white" stroke="white" cx="207" cy="-34" rx="30.88" ry="18"/>
<text text-anchor="middle" x="207" y="-28.95" font-family="Times,serif" font-size="14.00">Node</text>
</g>
<!-- s1r&#45;&gt;s1n3 -->
<g id="edge3" class="edge">
<title>s1r&#45;&gt;s1n3</title>
<path fill="none" stroke="black" d="M143.19,-90.83C154.32,-81.1 169.31,-67.98 181.97,-56.9"/>
<polygon fill="black" stroke="black" points="183.92,-59.84 189.15,-50.62 179.31,-54.57 183.92,-59.84"/>
</g>
</g>
</svg>
