<?xml version="1.0" encoding="UTF-8" standalone="no"?>
<!DOCTYPE svg PUBLIC "-//W3C//DTD SVG 1.1//EN"
 "http://www.w3.org/Graphics/SVG/1.1/DTD/svg11.dtd">
<!-- Generated by graphviz version 9.0.0 (20230911.1827)
 -->
<!-- Title: G Pages: 1 -->
<svg width="958pt" height="702pt"
 viewBox="0.00 0.00 958.00 701.50" xmlns="http://www.w3.org/2000/svg" xmlns:xlink="http://www.w3.org/1999/xlink">
<g id="graph0" class="graph" transform="scale(1 1) rotate(0) translate(4 697.5)">
<title>G</title>
<polygon fill="white" stroke="none" points="-4,4 -4,-697.5 954,-697.5 954,4 -4,4"/>
<g id="clust1" class="cluster">
<title>cluster_simple_component</title>
<polygon fill="lightblue" stroke="lightblue" points="168,-537 168,-685.5 406,-685.5 406,-537 168,-537"/>
<text text-anchor="middle" x="287" y="-668.2" font-family="Times,serif" font-size="14.00">Simple component</text>
</g>
<g id="clust9" class="cluster">
<title>cluster_in2</title>
</g>
<g id="clust16" class="cluster">
<title>cluster_3</title>
<polygon fill="lightgrey" stroke="lightgrey" points="414,-537 414,-685.5 772,-685.5 772,-537 414,-537"/>
<text text-anchor="middle" x="593" y="-668.2" font-family="Times,serif" font-size="14.00">Two&#45;root component</text>
</g>
<g id="clust19" class="cluster">
<title>cluster_0</title>
<polygon fill="lightblue" stroke="lightblue" points="780,-465 780,-685.5 942,-685.5 942,-465 780,-465"/>
<text text-anchor="middle" x="861" y="-668.2" font-family="Times,serif" font-size="14.00">Component #1</text>
</g>
<g id="clust4" class="cluster">
<title>cluster_common_ancestor_roots</title>
<polygon fill="lightblue" stroke="lightblue" points="28,-236.5 28,-457 506,-457 506,-236.5 28,-236.5"/>
<text text-anchor="middle" x="267" y="-439.7" font-family="Times,serif" font-size="14.00">Common ancestor of roots</text>
</g>
<g id="clust11" class="cluster">
<title>cluster_common_ancestor_nodes</title>
<polygon fill="lightblue" stroke="lightblue" points="8,-8 8,-156.5 486,-156.5 486,-8 8,-8"/>
<text text-anchor="middle" x="247" y="-139.2" font-family="Times,serif" font-size="14.00">Common ancestor of non&#45;root nodes</text>
</g>
<!-- s1r -->
<g id="node1" class="node">
<title>s1r</title>
<ellipse fill="white" stroke="white" cx="287" cy="-635" rx="28.83" ry="18"/>
<text text-anchor="middle" x="287" y="-629.95" font-family="Times,serif" font-size="14.00">Root</text>
</g>
<!-- s1n1 -->
<g id="node2" class="node">
<title>s1n1</title>
<ellipse fill="white" stroke="white" cx="207" cy="-563" rx="30.88" ry="18"/>
<text text-anchor="middle" x="207" y="-557.95" font-family="Times,serif" font-size="14.00">Node</text>
</g>
<!-- s1r&#45;&gt;s1n1 -->
<g id="edge1" class="edge">
<title>s1r&#45;&gt;s1n1</title>
<path fill="none" stroke="black" d="M270.81,-619.83C259.68,-610.1 244.69,-596.98 232.03,-585.9"/>
<polygon fill="black" stroke="black" points="234.69,-583.57 224.85,-579.62 230.08,-588.84 234.69,-583.57"/>
</g>
<!-- s1n2 -->
<g id="node3" class="node">
<title>s1n2</title>
<ellipse fill="white" stroke="white" cx="287" cy="-563" rx="30.88" ry="18"/>
<text text-anchor="middle" x="287" y="-557.95" font-family="Times,serif" font-size="14.00">Node</text>
</g>
<!-- s1r&#45;&gt;s1n2 -->
<g id="edge2" class="edge">
<title>s1r&#45;&gt;s1n2</title>
<path fill="none" stroke="black" d="M287,-616.7C287,-609.41 287,-600.73 287,-592.54"/>
<polygon fill="black" stroke="black" points="290.5,-592.62 287,-582.62 283.5,-592.62 290.5,-592.62"/>
</g>
<!-- s1n3 -->
<g id="node4" class="node">
<title>s1n3</title>
<ellipse fill="white" stroke="white" cx="367" cy="-563" rx="30.88" ry="18"/>
<text text-anchor="middle" x="367" y="-557.95" font-family="Times,serif" font-size="14.00">Node</text>
</g>
<!-- s1r&#45;&gt;s1n3 -->
<g id="edge3" class="edge">
<title>s1r&#45;&gt;s1n3</title>
<path fill="none" stroke="black" d="M303.19,-619.83C314.32,-610.1 329.31,-596.98 341.97,-585.9"/>
<polygon fill="black" stroke="black" points="343.92,-588.84 349.15,-579.62 339.31,-583.57 343.92,-588.84"/>
</g>
<!-- invisible_node_1 -->
<!-- s1n2&#45;&gt;invisible_node_1 -->
<!-- ca -->
<g id="node6" class="node">
<title>ca</title>
<ellipse fill="white" stroke="white" cx="287" cy="-406.5" rx="79.5" ry="18"/>
<text text-anchor="middle" x="287" y="-401.45" font-family="Times,serif" font-size="14.00">Common ancestor</text>
</g>
<!-- invisible_node_1&#45;&gt;ca -->
<!-- s2r -->
<g id="node7" class="node">
<title>s2r</title>
<ellipse fill="white" stroke="white" cx="187" cy="-334.5" rx="28.83" ry="18"/>
<text text-anchor="middle" x="187" y="-329.45" font-family="Times,serif" font-size="14.00">Root</text>
</g>
<!-- ca&#45;&gt;s2r -->
<g id="edge6" class="edge">
<title>ca&#45;&gt;s2r</title>
<path fill="none" stroke="black" d="M263.3,-388.91C248.8,-378.76 230.18,-365.73 214.96,-355.07"/>
<polygon fill="black" stroke="black" points="216.97,-352.21 206.77,-349.34 212.96,-357.94 216.97,-352.21"/>
</g>
<!-- s3r -->
<g id="node8" class="node">
<title>s3r</title>
<ellipse fill="white" stroke="white" cx="347" cy="-334.5" rx="28.83" ry="18"/>
<text text-anchor="middle" x="347" y="-329.45" font-family="Times,serif" font-size="14.00">Root</text>
</g>
<!-- ca&#45;&gt;s3r -->
<g id="edge7" class="edge">
<title>ca&#45;&gt;s3r</title>
<path fill="none" stroke="black" d="M301.52,-388.55C308.99,-379.85 318.21,-369.09 326.4,-359.53"/>
<polygon fill="black" stroke="black" points="329,-361.88 332.85,-352.01 323.69,-357.32 329,-361.88"/>
</g>
<!-- s2n1 -->
<g id="node9" class="node">
<title>s2n1</title>
<ellipse fill="white" stroke="white" cx="67" cy="-262.5" rx="30.88" ry="18"/>
<text text-anchor="middle" x="67" y="-257.45" font-family="Times,serif" font-size="14.00">Node</text>
</g>
<!-- s2r&#45;&gt;s2n1 -->
<g id="edge8" class="edge">
<title>s2r&#45;&gt;s2n1</title>
<path fill="none" stroke="black" d="M166.37,-321.47C147.51,-310.47 119.36,-294.04 97.83,-281.49"/>
<polygon fill="black" stroke="black" points="99.87,-278.62 89.47,-276.61 96.35,-284.67 99.87,-278.62"/>
</g>
<!-- s2n2 -->
<g id="node10" class="node">
<title>s2n2</title>
<ellipse fill="white" stroke="white" cx="147" cy="-262.5" rx="30.88" ry="18"/>
<text text-anchor="middle" x="147" y="-257.45" font-family="Times,serif" font-size="14.00">Node</text>
</g>
<!-- s2r&#45;&gt;s2n2 -->
<g id="edge9" class="edge">
<title>s2r&#45;&gt;s2n2</title>
<path fill="none" stroke="black" d="M177.72,-317.26C173.03,-309.05 167.21,-298.87 161.91,-289.59"/>
<polygon fill="black" stroke="black" points="164.98,-287.91 156.98,-280.96 158.9,-291.38 164.98,-287.91"/>
</g>
<!-- s2n3 -->
<g id="node11" class="node">
<title>s2n3</title>
<ellipse fill="white" stroke="white" cx="227" cy="-262.5" rx="30.88" ry="18"/>
<text text-anchor="middle" x="227" y="-257.45" font-family="Times,serif" font-size="14.00">Node</text>
</g>
<!-- s2r&#45;&gt;s2n3 -->
<g id="edge10" class="edge">
<title>s2r&#45;&gt;s2n3</title>
<path fill="none" stroke="black" d="M196.28,-317.26C200.97,-309.05 206.79,-298.87 212.09,-289.59"/>
<polygon fill="black" stroke="black" points="215.1,-291.38 217.02,-280.96 209.02,-287.91 215.1,-291.38"/>
</g>
<!-- s3n1 -->
<g id="node12" class="node">
<title>s3n1</title>
<ellipse fill="white" stroke="white" cx="307" cy="-262.5" rx="30.88" ry="18"/>
<text text-anchor="middle" x="307" y="-257.45" font-family="Times,serif" font-size="14.00">Node</text>
</g>
<!-- s3r&#45;&gt;s3n1 -->
<g id="edge11" class="edge">
<title>s3r&#45;&gt;s3n1</title>
<path fill="none" stroke="black" d="M337.72,-317.26C333.03,-309.05 327.21,-298.87 321.91,-289.59"/>
<polygon fill="black" stroke="black" points="324.98,-287.91 316.98,-280.96 318.9,-291.38 324.98,-287.91"/>
</g>
<!-- s3n2 -->
<g id="node13" class="node">
<title>s3n2</title>
<ellipse fill="white" stroke="white" cx="387" cy="-262.5" rx="30.88" ry="18"/>
<text text-anchor="middle" x="387" y="-257.45" font-family="Times,serif" font-size="14.00">Node</text>
</g>
<!-- s3r&#45;&gt;s3n2 -->
<g id="edge12" class="edge">
<title>s3r&#45;&gt;s3n2</title>
<path fill="none" stroke="black" d="M356.28,-317.26C360.97,-309.05 366.79,-298.87 372.09,-289.59"/>
<polygon fill="black" stroke="black" points="375.1,-291.38 377.02,-280.96 369.02,-287.91 375.1,-291.38"/>
</g>
<!-- s3n3 -->
<g id="node14" class="node">
<title>s3n3</title>
<ellipse fill="white" stroke="white" cx="467" cy="-262.5" rx="30.88" ry="18"/>
<text text-anchor="middle" x="467" y="-257.45" font-family="Times,serif" font-size="14.00">Node</text>
</g>
<!-- s3r&#45;&gt;s3n3 -->
<g id="edge13" class="edge">
<title>s3r&#45;&gt;s3n3</title>
<path fill="none" stroke="black" d="M367.63,-321.47C386.49,-310.47 414.64,-294.04 436.17,-281.49"/>
<polygon fill="black" stroke="black" points="437.65,-284.67 444.53,-276.61 434.13,-278.62 437.65,-284.67"/>
</g>
<!-- invisible_node_2 -->
<!-- s2n3&#45;&gt;invisible_node_2 -->
<!-- s3n1&#45;&gt;invisible_node_2 -->
<!-- car_ca -->
<g id="node16" class="node">
<title>car_ca</title>
<ellipse fill="white" stroke="white" cx="247" cy="-106" rx="79.5" ry="18"/>
<text text-anchor="middle" x="247" y="-100.95" font-family="Times,serif" font-size="14.00">Common ancestor</text>
</g>
<!-- invisible_node_2&#45;&gt;car_ca -->
<!-- car_s2n3 -->
<g id="node21" class="node">
<title>car_s2n3</title>
<ellipse fill="white" stroke="white" cx="287" cy="-34" rx="30.88" ry="18"/>
<text text-anchor="middle" x="287" y="-28.95" font-family="Times,serif" font-size="14.00">Node</text>
</g>
<!-- car_ca&#45;&gt;car_s2n3 -->
<g id="edge17" class="edge">
<title>car_ca&#45;&gt;car_s2n3</title>
<path fill="none" stroke="black" d="M256.89,-87.7C261.41,-79.78 266.87,-70.23 271.89,-61.44"/>
<polygon fill="black" stroke="black" points="274.83,-63.36 276.75,-52.94 268.75,-59.88 274.83,-63.36"/>
</g>
<!-- car_s3n3 -->
<g id="node24" class="node">
<title>car_s3n3</title>
<ellipse fill="white" stroke="white" cx="207" cy="-34" rx="30.88" ry="18"/>
<text text-anchor="middle" x="207" y="-28.95" font-family="Times,serif" font-size="14.00">Node</text>
</g>
<!-- car_ca&#45;&gt;car_s3n3 -->
<g id="edge18" class="edge">
<title>car_ca&#45;&gt;car_s3n3</title>
<path fill="none" stroke="black" d="M237.11,-87.7C232.59,-79.78 227.13,-70.23 222.11,-61.44"/>
<polygon fill="black" stroke="black" points="225.25,-59.88 217.25,-52.94 219.17,-63.36 225.25,-59.88"/>
</g>
<!-- car_s2r -->
<g id="node17" class="node">
<title>car_s2r</title>
<ellipse fill="white" stroke="white" cx="373" cy="-106" rx="28.83" ry="18"/>
<text text-anchor="middle" x="373" y="-100.95" font-family="Times,serif" font-size="14.00">Root</text>
</g>
<!-- car_s2n1 -->
<g id="node19" class="node">
<title>car_s2n1</title>
<ellipse fill="white" stroke="white" cx="367" cy="-34" rx="30.88" ry="18"/>
<text text-anchor="middle" x="367" y="-28.95" font-family="Times,serif" font-size="14.00">Node</text>
</g>
<!-- car_s2r&#45;&gt;car_s2n1 -->
<g id="edge19" class="edge">
<title>car_s2r&#45;&gt;car_s2n1</title>
<path fill="none" stroke="black" d="M371.52,-87.7C370.89,-80.41 370.15,-71.73 369.45,-63.54"/>
<polygon fill="black" stroke="black" points="372.94,-63.28 368.6,-53.61 365.96,-63.87 372.94,-63.28"/>
</g>
<!-- car_s2n2 -->
<g id="node20" class="node">
<title>car_s2n2</title>
<ellipse fill="white" stroke="white" cx="447" cy="-34" rx="30.88" ry="18"/>
<text text-anchor="middle" x="447" y="-28.95" font-family="Times,serif" font-size="14.00">Node</text>
</g>
<!-- car_s2r&#45;&gt;car_s2n2 -->
<g id="edge20" class="edge">
<title>car_s2r&#45;&gt;car_s2n2</title>
<path fill="none" stroke="black" d="M388.33,-90.5C398.32,-81.05 411.55,-68.53 422.93,-57.77"/>
<polygon fill="black" stroke="black" points="425.22,-60.42 430.08,-51.01 420.41,-55.34 425.22,-60.42"/>
</g>
<!-- car_s2r&#45;&gt;car_s2n3 -->
<g id="edge21" class="edge">
<title>car_s2r&#45;&gt;car_s2n3</title>
<path fill="none" stroke="black" d="M356.01,-91.17C343.8,-81.23 327.12,-67.65 313.21,-56.33"/>
<polygon fill="black" stroke="black" points="315.68,-53.84 305.72,-50.24 311.27,-59.26 315.68,-53.84"/>
</g>
<!-- car_s3r -->
<g id="node18" class="node">
<title>car_s3r</title>
<ellipse fill="white" stroke="white" cx="121" cy="-106" rx="28.83" ry="18"/>
<text text-anchor="middle" x="121" y="-100.95" font-family="Times,serif" font-size="14.00">Root</text>
</g>
<!-- car_s3n1 -->
<g id="node22" class="node">
<title>car_s3n1</title>
<ellipse fill="white" stroke="white" cx="47" cy="-34" rx="30.88" ry="18"/>
<text text-anchor="middle" x="47" y="-28.95" font-family="Times,serif" font-size="14.00">Node</text>
</g>
<!-- car_s3r&#45;&gt;car_s3n1 -->
<g id="edge22" class="edge">
<title>car_s3r&#45;&gt;car_s3n1</title>
<path fill="none" stroke="black" d="M105.67,-90.5C95.68,-81.05 82.45,-68.53 71.07,-57.77"/>
<polygon fill="black" stroke="black" points="73.59,-55.34 63.92,-51.01 68.78,-60.42 73.59,-55.34"/>
</g>
<!-- car_s3n2 -->
<g id="node23" class="node">
<title>car_s3n2</title>
<ellipse fill="white" stroke="white" cx="127" cy="-34" rx="30.88" ry="18"/>
<text text-anchor="middle" x="127" y="-28.95" font-family="Times,serif" font-size="14.00">Node</text>
</g>
<!-- car_s3r&#45;&gt;car_s3n2 -->
<g id="edge23" class="edge">
<title>car_s3r&#45;&gt;car_s3n2</title>
<path fill="none" stroke="black" d="M122.48,-87.7C123.11,-80.41 123.85,-71.73 124.55,-63.54"/>
<polygon fill="black" stroke="black" points="128.04,-63.87 125.4,-53.61 121.06,-63.28 128.04,-63.87"/>
</g>
<!-- car_s3r&#45;&gt;car_s3n3 -->
<g id="edge24" class="edge">
<title>car_s3r&#45;&gt;car_s3n3</title>
<path fill="none" stroke="black" d="M137.99,-91.17C150.2,-81.23 166.88,-67.65 180.79,-56.33"/>
<polygon fill="black" stroke="black" points="182.73,-59.26 188.28,-50.24 178.32,-53.84 182.73,-59.26"/>
</g>
<!-- r0 -->
<g id="node25" class="node">
<title>r0</title>
<ellipse fill="white" stroke="white" cx="629" cy="-635" rx="27" ry="18"/>
<text text-anchor="middle" x="629" y="-629.95" font-family="Times,serif" font-size="14.00">r0</text>
</g>
<!-- b1 -->
<g id="node26" class="node">
<title>b1</title>
<ellipse fill="white" stroke="white" cx="665" cy="-563" rx="27" ry="18"/>
<text text-anchor="middle" x="665" y="-557.95" font-family="Times,serif" font-size="14.00">b1</text>
</g>
<!-- r0&#45;&gt;b1 -->
<g id="edge25" class="edge">
<title>r0&#45;&gt;b1</title>
<path fill="none" stroke="black" d="M637.35,-617.76C641.58,-609.55 646.81,-599.37 651.58,-590.09"/>
<polygon fill="black" stroke="black" points="654.54,-591.99 656,-581.49 648.32,-588.79 654.54,-591.99"/>
</g>
<!-- b2 -->
<g id="node27" class="node">
<title>b2</title>
<ellipse fill="white" stroke="white" cx="737" cy="-563" rx="27" ry="18"/>
<text text-anchor="middle" x="737" y="-557.95" font-family="Times,serif" font-size="14.00">b2</text>
</g>
<!-- r0&#45;&gt;b2 -->
<g id="edge26" class="edge">
<title>r0&#45;&gt;b2</title>
<path fill="none" stroke="black" d="M647.81,-621.81C664.59,-610.93 689.39,-594.86 708.59,-582.42"/>
<polygon fill="black" stroke="black" points="710.28,-585.49 716.77,-577.11 706.48,-579.61 710.28,-585.49"/>
</g>
<!-- b3 -->
<g id="node28" class="node">
<title>b3</title>
<ellipse fill="white" stroke="white" cx="593" cy="-563" rx="27" ry="18"/>
<text text-anchor="middle" x="593" y="-557.95" font-family="Times,serif" font-size="14.00">b3</text>
</g>
<!-- r0&#45;&gt;b3 -->
<g id="edge27" class="edge">
<title>r0&#45;&gt;b3</title>
<path fill="none" stroke="black" d="M620.65,-617.76C616.42,-609.55 611.19,-599.37 606.42,-590.09"/>
<polygon fill="black" stroke="black" points="609.68,-588.79 602,-581.49 603.46,-591.99 609.68,-588.79"/>
</g>
<!-- b4 -->
<g id="node29" class="node">
<title>b4</title>
<ellipse fill="white" stroke="white" cx="521" cy="-563" rx="27" ry="18"/>
<text text-anchor="middle" x="521" y="-557.95" font-family="Times,serif" font-size="14.00">b4</text>
</g>
<!-- r0&#45;&gt;b4 -->
<g id="edge28" class="edge">
<title>r0&#45;&gt;b4</title>
<path fill="none" stroke="black" d="M610.19,-621.81C593.41,-610.93 568.61,-594.86 549.41,-582.42"/>
<polygon fill="black" stroke="black" points="551.52,-579.61 541.23,-577.11 547.72,-585.49 551.52,-579.61"/>
</g>
<!-- r1 -->
<g id="node30" class="node">
<title>r1</title>
<ellipse fill="white" stroke="white" cx="485" cy="-635" rx="27" ry="18"/>
<text text-anchor="middle" x="485" y="-629.95" font-family="Times,serif" font-size="14.00">r1</text>
</g>
<!-- r1&#45;&gt;b4 -->
<g id="edge29" class="edge">
<title>r1&#45;&gt;b4</title>
<path fill="none" stroke="black" d="M493.35,-617.76C497.58,-609.55 502.81,-599.37 507.58,-590.09"/>
<polygon fill="black" stroke="black" points="510.54,-591.99 512,-581.49 504.32,-588.79 510.54,-591.99"/>
</g>
<!-- b5 -->
<g id="node31" class="node">
<title>b5</title>
<ellipse fill="white" stroke="white" cx="449" cy="-563" rx="27" ry="18"/>
<text text-anchor="middle" x="449" y="-557.95" font-family="Times,serif" font-size="14.00">b5</text>
</g>
<!-- r1&#45;&gt;b5 -->
<g id="edge30" class="edge">
<title>r1&#45;&gt;b5</title>
<path fill="none" stroke="black" d="M476.65,-617.76C472.42,-609.55 467.19,-599.37 462.42,-590.09"/>
<polygon fill="black" stroke="black" points="465.68,-588.79 458,-581.49 459.46,-591.99 465.68,-588.79"/>
</g>
<!-- c0 -->
<g id="node32" class="node">
<title>c0</title>
<ellipse fill="white" stroke="white" cx="887" cy="-635" rx="27" ry="18"/>
<text text-anchor="middle" x="887" y="-629.95" font-family="Times,serif" font-size="14.00">c0</text>
</g>
<!-- c1 -->
<g id="node33" class="node">
<title>c1</title>
<ellipse fill="white" stroke="white" cx="815" cy="-563" rx="27" ry="18"/>
<text text-anchor="middle" x="815" y="-557.95" font-family="Times,serif" font-size="14.00">c1</text>
</g>
<!-- c0&#45;&gt;c1 -->
<g id="edge31" class="edge">
<title>c0&#45;&gt;c1</title>
<path fill="none" stroke="black" d="M872.08,-619.5C862.23,-609.92 849.14,-597.19 837.97,-586.34"/>
<polygon fill="black" stroke="black" points="840.59,-584 830.98,-579.54 835.71,-589.02 840.59,-584"/>
</g>
<!-- c2 -->
<g id="node34" class="node">
<title>c2</title>
<ellipse fill="white" stroke="white" cx="887" cy="-563" rx="27" ry="18"/>
<text text-anchor="middle" x="887" y="-557.95" font-family="Times,serif" font-size="14.00">c2</text>
</g>
<!-- c0&#45;&gt;c2 -->
<g id="edge32" class="edge">
<title>c0&#45;&gt;c2</title>
<path fill="none" stroke="black" d="M887,-616.7C887,-609.41 887,-600.73 887,-592.54"/>
<polygon fill="black" stroke="black" points="890.5,-592.62 887,-582.62 883.5,-592.62 890.5,-592.62"/>
</g>
<!-- c3 -->
<g id="node35" class="node">
<title>c3</title>
<ellipse fill="white" stroke="white" cx="902" cy="-491" rx="27" ry="18"/>
<text text-anchor="middle" x="902" y="-485.95" font-family="Times,serif" font-size="14.00">c3</text>
</g>
<!-- c0&#45;&gt;c3 -->
<g id="edge33" class="edge">
<title>c0&#45;&gt;c3</title>
<path fill="none" stroke="black" d="M900.75,-619.07C908.96,-609.1 918.62,-595.25 923,-581 928.75,-562.31 927.24,-556.09 923,-537 921.6,-530.69 919.22,-524.21 916.55,-518.21"/>
<polygon fill="black" stroke="black" points="919.79,-516.86 912.25,-509.41 913.5,-519.94 919.79,-516.86"/>
</g>
<!-- c4 -->
<g id="node36" class="node">
<title>c4</title>
<ellipse fill="white" stroke="white" cx="825" cy="-491" rx="27" ry="18"/>
<text text-anchor="middle" x="825" y="-485.95" font-family="Times,serif" font-size="14.00">c4</text>
</g>
<!-- c1&#45;&gt;c4 -->
<g id="edge35" class="edge">
<title>c1&#45;&gt;c4</title>
<path fill="none" stroke="black" d="M817.47,-544.7C818.53,-537.32 819.78,-528.52 820.96,-520.25"/>
<polygon fill="black" stroke="black" points="824.39,-521 822.34,-510.6 817.46,-520.01 824.39,-521"/>
</g>
<!-- c2&#45;&gt;c3 -->
<g id="edge34" class="edge">
<title>c2&#45;&gt;c3</title>
<path fill="none" stroke="black" d="M890.71,-544.7C892.29,-537.32 894.17,-528.52 895.95,-520.25"/>
<polygon fill="black" stroke="black" points="899.34,-521.1 898.02,-510.58 892.5,-519.63 899.34,-521.1"/>
</g>
<!-- c2&#45;&gt;c4 -->
<g id="edge36" class="edge">
<title>c2&#45;&gt;c4</title>
<path fill="none" stroke="black" d="M873.85,-547.15C865.63,-537.87 854.87,-525.73 845.54,-515.19"/>
<polygon fill="black" stroke="black" points="848.38,-513.12 839.13,-507.96 843.14,-517.76 848.38,-513.12"/>
</g>
</g>
</svg>
