<?xml version="1.0" encoding="UTF-8" standalone="no"?>
<!DOCTYPE svg PUBLIC "-//W3C//DTD SVG 1.1//EN"
 "http://www.w3.org/Graphics/SVG/1.1/DTD/svg11.dtd">
<!-- Generated by graphviz version 9.0.0 (20230911.1827)
 -->
<!-- Title: G Pages: 1 -->
<svg width="502pt" height="245pt"
 viewBox="0.00 0.00 502.00 244.50" xmlns="http://www.w3.org/2000/svg" xmlns:xlink="http://www.w3.org/1999/xlink">
<g id="graph0" class="graph" transform="scale(1 1) rotate(0) translate(4 240.5)">
<title>G</title>
<polygon fill="white" stroke="none" points="-4,4 -4,-240.5 498,-240.5 498,4 -4,4"/>
<g id="clust1" class="cluster">
<title>cluster_common_ancestor_nodes</title>
<polygon fill="lightblue" stroke="lightblue" points="8,-8 8,-228.5 486,-228.5 486,-8 8,-8"/>
<text text-anchor="middle" x="247" y="-211.2" font-family="Times,serif" font-size="14.00">Common ancestor of non&#45;root nodes</text>
</g>
<!-- ca -->
<g id="node1" class="node">
<title>ca</title>
<ellipse fill="white" stroke="white" cx="247" cy="-178" rx="79.5" ry="18"/>
<text text-anchor="middle" x="247" y="-172.95" font-family="Times,serif" font-size="14.00">Common ancestor</text>
</g>
<!-- invisible_node -->
<!-- ca&#45;&gt;invisible_node -->
<!-- a3 -->
<g id="node7" class="node">
<title>a3</title>
<ellipse fill="white" stroke="white" cx="207" cy="-34" rx="30.88" ry="18"/>
<text text-anchor="middle" x="207" y="-28.95" font-family="Times,serif" font-size="14.00">Node</text>
</g>
<!-- ca&#45;&gt;a3 -->
<g id="edge10" class="edge">
<title>ca&#45;&gt;a3</title>
<path fill="none" stroke="black" d="M241.93,-159.76C235.17,-135.42 223.12,-92.02 215.09,-63.12"/>
<polygon fill="black" stroke="black" points="218.48,-62.25 212.43,-53.55 211.73,-64.12 218.48,-62.25"/>
</g>
<!-- b1 -->
<g id="node8" class="node">
<title>b1</title>
<ellipse fill="white" stroke="white" cx="287" cy="-34" rx="30.88" ry="18"/>
<text text-anchor="middle" x="287" y="-28.95" font-family="Times,serif" font-size="14.00">Node</text>
</g>
<!-- ca&#45;&gt;b1 -->
<g id="edge11" class="edge">
<title>ca&#45;&gt;b1</title>
<path fill="none" stroke="black" d="M252.07,-159.76C258.83,-135.42 270.88,-92.02 278.91,-63.12"/>
<polygon fill="black" stroke="black" points="282.27,-64.12 281.57,-53.55 275.52,-62.25 282.27,-64.12"/>
</g>
<!-- r1 -->
<g id="node2" class="node">
<title>r1</title>
<ellipse fill="white" stroke="white" cx="92" cy="-106" rx="49.3" ry="18"/>
<text text-anchor="middle" x="92" y="-100.95" font-family="Times,serif" font-size="14.00">Root node</text>
</g>
<!-- a1 -->
<g id="node5" class="node">
<title>a1</title>
<ellipse fill="white" stroke="white" cx="47" cy="-34" rx="30.88" ry="18"/>
<text text-anchor="middle" x="47" y="-28.95" font-family="Times,serif" font-size="14.00">Node</text>
</g>
<!-- r1&#45;&gt;a1 -->
<g id="edge1" class="edge">
<title>r1&#45;&gt;a1</title>
<path fill="none" stroke="black" d="M81.11,-88.05C75.83,-79.85 69.39,-69.83 63.53,-60.71"/>
<polygon fill="black" stroke="black" points="66.65,-59.1 58.3,-52.58 60.77,-62.88 66.65,-59.1"/>
</g>
<!-- a2 -->
<g id="node6" class="node">
<title>a2</title>
<ellipse fill="white" stroke="white" cx="127" cy="-34" rx="30.88" ry="18"/>
<text text-anchor="middle" x="127" y="-28.95" font-family="Times,serif" font-size="14.00">Node</text>
</g>
<!-- r1&#45;&gt;a2 -->
<g id="edge2" class="edge">
<title>r1&#45;&gt;a2</title>
<path fill="none" stroke="black" d="M100.47,-88.05C104.38,-80.23 109.13,-70.75 113.51,-61.98"/>
<polygon fill="black" stroke="black" points="116.59,-63.65 117.93,-53.14 110.33,-60.52 116.59,-63.65"/>
</g>
<!-- r1&#45;&gt;a3 -->
<g id="edge3" class="edge">
<title>r1&#45;&gt;a3</title>
<path fill="none" stroke="black" d="M116.67,-89.98C134.16,-79.34 157.73,-64.99 176.41,-53.62"/>
<polygon fill="black" stroke="black" points="178.2,-56.63 184.93,-48.44 174.56,-50.65 178.2,-56.63"/>
</g>
<!-- invisible_node&#45;&gt;a3 -->
<!-- invisible_node&#45;&gt;b1 -->
<!-- r2 -->
<g id="node4" class="node">
<title>r2</title>
<ellipse fill="white" stroke="white" cx="402" cy="-106" rx="49.3" ry="18"/>
<text text-anchor="middle" x="402" y="-100.95" font-family="Times,serif" font-size="14.00">Root node</text>
</g>
<!-- r2&#45;&gt;b1 -->
<g id="edge4" class="edge">
<title>r2&#45;&gt;b1</title>
<path fill="none" stroke="black" d="M377.33,-89.98C359.84,-79.34 336.27,-64.99 317.59,-53.62"/>
<polygon fill="black" stroke="black" points="319.44,-50.65 309.07,-48.44 315.8,-56.63 319.44,-50.65"/>
</g>
<!-- b2 -->
<g id="node9" class="node">
<title>b2</title>
<ellipse fill="white" stroke="white" cx="367" cy="-34" rx="30.88" ry="18"/>
<text text-anchor="middle" x="367" y="-28.95" font-family="Times,serif" font-size="14.00">Node</text>
</g>
<!-- r2&#45;&gt;b2 -->
<g id="edge5" class="edge">
<title>r2&#45;&gt;b2</title>
<path fill="none" stroke="black" d="M393.53,-88.05C389.62,-80.23 384.87,-70.75 380.49,-61.98"/>
<polygon fill="black" stroke="black" points="383.67,-60.52 376.07,-53.14 377.41,-63.65 383.67,-60.52"/>
</g>
<!-- b3 -->
<g id="node10" class="node">
<title>b3</title>
<ellipse fill="white" stroke="white" cx="447" cy="-34" rx="30.88" ry="18"/>
<text text-anchor="middle" x="447" y="-28.95" font-family="Times,serif" font-size="14.00">Node</text>
</g>
<!-- r2&#45;&gt;b3 -->
<g id="edge6" class="edge">
<title>r2&#45;&gt;b3</title>
<path fill="none" stroke="black" d="M412.89,-88.05C418.17,-79.85 424.61,-69.83 430.47,-60.71"/>
<polygon fill="black" stroke="black" points="433.23,-62.88 435.7,-52.58 427.35,-59.1 433.23,-62.88"/>
</g>
</g>
</svg>
