<?xml version="1.0" encoding="UTF-8" standalone="no"?>
<!DOCTYPE svg PUBLIC "-//W3C//DTD SVG 1.1//EN"
 "http://www.w3.org/Graphics/SVG/1.1/DTD/svg11.dtd">
<!-- Generated by graphviz version 9.0.0 (20230911.1827)
 -->
<!-- Title: G Pages: 1 -->
<svg width="502pt" height="245pt"
 viewBox="0.00 0.00 502.00 244.50" xmlns="http://www.w3.org/2000/svg" xmlns:xlink="http://www.w3.org/1999/xlink">
<g id="graph0" class="graph" transform="scale(1 1) rotate(0) translate(4 240.5)">
<title>G</title>
<polygon fill="white" stroke="none" points="-4,4 -4,-240.5 498,-240.5 498,4 -4,4"/>
<g id="clust1" class="cluster">
<title>cluster_common_ancestor_roots</title>
<polygon fill="lightblue" stroke="lightblue" points="8,-8 8,-228.5 486,-228.5 486,-8 8,-8"/>
<text text-anchor="middle" x="247" y="-211.2" font-family="Times,serif" font-size="14.00">Common ancestor of roots</text>
</g>
<!-- s2r -->
<g id="node1" class="node">
<title>s2r</title>
<ellipse fill="white" stroke="white" cx="167" cy="-106" rx="28.83" ry="18"/>
<text text-anchor="middle" x="167" y="-100.95" font-family="Times,serif" font-size="14.00">Root</text>
</g>
<!-- s2n1 -->
<g id="node3" class="node">
<title>s2n1</title>
<ellipse fill="white" stroke="white" cx="47" cy="-34" rx="30.88" ry="18"/>
<text text-anchor="middle" x="47" y="-28.95" font-family="Times,serif" font-size="14.00">Node</text>
</g>
<!-- s2r&#45;&gt;s2n1 -->
<g id="edge3" class="edge">
<title>s2r&#45;&gt;s2n1</title>
<path fill="none" stroke="black" d="M146.37,-92.97C127.51,-81.97 99.36,-65.54 77.83,-52.99"/>
<polygon fill="black" stroke="black" points="79.87,-50.12 69.47,-48.11 76.35,-56.17 79.87,-50.12"/>
</g>
<!-- s2n2 -->
<g id="node4" class="node">
<title>s2n2</title>
<ellipse fill="white" stroke="white" cx="127" cy="-34" rx="30.88" ry="18"/>
<text text-anchor="middle" x="127" y="-28.95" font-family="Times,serif" font-size="14.00">Node</text>
</g>
<!-- s2r&#45;&gt;s2n2 -->
<g id="edge4" class="edge">
<title>s2r&#45;&gt;s2n2</title>
<path fill="none" stroke="black" d="M157.72,-88.76C153.03,-80.55 147.21,-70.37 141.91,-61.09"/>
<polygon fill="black" stroke="black" points="144.98,-59.41 136.98,-52.46 138.9,-62.88 144.98,-59.41"/>
</g>
<!-- s2n3 -->
<g id="node5" class="node">
<title>s2n3</title>
<ellipse fill="white" stroke="white" cx="207" cy="-34" rx="30.88" ry="18"/>
<text text-anchor="middle" x="207" y="-28.95" font-family="Times,serif" font-size="14.00">Node</text>
</g>
<!-- s2r&#45;&gt;s2n3 -->
<g id="edge5" class="edge">
<title>s2r&#45;&gt;s2n3</title>
<path fill="none" stroke="black" d="M176.28,-88.76C180.97,-80.55 186.79,-70.37 192.09,-61.09"/>
<polygon fill="black" stroke="black" points="195.1,-62.88 197.02,-52.46 189.02,-59.41 195.1,-62.88"/>
</g>
<!-- s3r -->
<g id="node2" class="node">
<title>s3r</title>
<ellipse fill="white" stroke="white" cx="327" cy="-106" rx="28.83" ry="18"/>
<text text-anchor="middle" x="327" y="-100.95" font-family="Times,serif" font-size="14.00">Root</text>
</g>
<!-- s3n1 -->
<g id="node6" class="node">
<title>s3n1</title>
<ellipse fill="white" stroke="white" cx="287" cy="-34" rx="30.88" ry="18"/>
<text text-anchor="middle" x="287" y="-28.95" font-family="Times,serif" font-size="14.00">Node</text>
</g>
<!-- s3r&#45;&gt;s3n1 -->
<g id="edge6" class="edge">
<title>s3r&#45;&gt;s3n1</title>
<path fill="none" stroke="black" d="M317.72,-88.76C313.03,-80.55 307.21,-70.37 301.91,-61.09"/>
<polygon fill="black" stroke="black" points="304.98,-59.41 296.98,-52.46 298.9,-62.88 304.98,-59.41"/>
</g>
<!-- s3n2 -->
<g id="node7" class="node">
<title>s3n2</title>
<ellipse fill="white" stroke="white" cx="367" cy="-34" rx="30.88" ry="18"/>
<text text-anchor="middle" x="367" y="-28.95" font-family="Times,serif" font-size="14.00">Node</text>
</g>
<!-- s3r&#45;&gt;s3n2 -->
<g id="edge7" class="edge">
<title>s3r&#45;&gt;s3n2</title>
<path fill="none" stroke="black" d="M336.28,-88.76C340.97,-80.55 346.79,-70.37 352.09,-61.09"/>
<polygon fill="black" stroke="black" points="355.1,-62.88 357.02,-52.46 349.02,-59.41 355.1,-62.88"/>
</g>
<!-- s3n3 -->
<g id="node8" class="node">
<title>s3n3</title>
<ellipse fill="white" stroke="white" cx="447" cy="-34" rx="30.88" ry="18"/>
<text text-anchor="middle" x="447" y="-28.95" font-family="Times,serif" font-size="14.00">Node</text>
</g>
<!-- s3r&#45;&gt;s3n3 -->
<g id="edge8" class="edge">
<title>s3r&#45;&gt;s3n3</title>
<path fill="none" stroke="black" d="M347.63,-92.97C366.49,-81.97 394.64,-65.54 416.17,-52.99"/>
<polygon fill="black" stroke="black" points="417.65,-56.17 424.53,-48.11 414.13,-50.12 417.65,-56.17"/>
</g>
<!-- ca -->
<g id="node9" class="node">
<title>ca</title>
<ellipse fill="white" stroke="white" cx="247" cy="-178" rx="79.5" ry="18"/>
<text text-anchor="middle" x="247" y="-172.95" font-family="Times,serif" font-size="14.00">Common ancestor</text>
</g>
<!-- ca&#45;&gt;s2r -->
<g id="edge1" class="edge">
<title>ca&#45;&gt;s2r</title>
<path fill="none" stroke="black" d="M227.63,-160.05C216.8,-150.58 203.19,-138.66 191.6,-128.53"/>
<polygon fill="black" stroke="black" points="194.19,-126.14 184.36,-122.19 189.58,-131.41 194.19,-126.14"/>
</g>
<!-- ca&#45;&gt;s3r -->
<g id="edge2" class="edge">
<title>ca&#45;&gt;s3r</title>
<path fill="none" stroke="black" d="M266.37,-160.05C277.2,-150.58 290.81,-138.66 302.4,-128.53"/>
<polygon fill="black" stroke="black" points="304.42,-131.41 309.64,-122.19 299.81,-126.14 304.42,-131.41"/>
</g>
</g>
</svg>
