<?xml version="1.0" encoding="UTF-8" standalone="no"?>
<!DOCTYPE svg PUBLIC "-//W3C//DTD SVG 1.1//EN"
 "http://www.w3.org/Graphics/SVG/1.1/DTD/svg11.dtd">
<!-- Generated by graphviz version 9.0.0 (20230911.1827)
 -->
<!-- Title: G Pages: 1 -->
<svg width="836pt" height="245pt"
 viewBox="0.00 0.00 836.00 244.50" xmlns="http://www.w3.org/2000/svg" xmlns:xlink="http://www.w3.org/1999/xlink">
<g id="graph0" class="graph" transform="scale(1 1) rotate(0) translate(4 240.5)">
<title>G</title>
<polygon fill="white" stroke="none" points="-4,4 -4,-240.5 832,-240.5 832,4 -4,4"/>
<g id="clust1" class="cluster">
<title>cluster_1</title>
<polygon fill="lightblue" stroke="lightblue" points="8,-80 8,-228.5 222,-228.5 222,-80 8,-80"/>
<text text-anchor="middle" x="115" y="-211.2" font-family="Times,serif" font-size="14.00">Simple component</text>
</g>
<g id="clust3" class="cluster">
<title>cluster_2</title>
<polygon fill="lightgrey" stroke="lightgrey" points="292,-80 292,-228.5 650,-228.5 650,-80 292,-80"/>
<text text-anchor="middle" x="471" y="-211.2" font-family="Times,serif" font-size="14.00">Two&#45;root component</text>
</g>
<g id="clust6" class="cluster">
<title>cluster_0</title>
<polygon fill="lightblue" stroke="lightblue" points="658,-8 658,-228.5 820,-228.5 820,-8 658,-8"/>
<text text-anchor="middle" x="739" y="-211.2" font-family="Times,serif" font-size="14.00">Component #1</text>
</g>
<!-- a0 -->
<g id="node1" class="node">
<title>a0</title>
<ellipse fill="white" stroke="white" cx="115" cy="-178" rx="27" ry="18"/>
<text text-anchor="middle" x="115" y="-172.95" font-family="Times,serif" font-size="14.00">a0</text>
</g>
<!-- a1 -->
<g id="node2" class="node">
<title>a1</title>
<ellipse fill="white" stroke="white" cx="43" cy="-106" rx="27" ry="18"/>
<text text-anchor="middle" x="43" y="-100.95" font-family="Times,serif" font-size="14.00">a1</text>
</g>
<!-- a0&#45;&gt;a1 -->
<g id="edge1" class="edge">
<title>a0&#45;&gt;a1</title>
<path fill="none" stroke="black" d="M100.08,-162.5C90.23,-152.92 77.14,-140.19 65.97,-129.34"/>
<polygon fill="black" stroke="black" points="68.59,-127 58.98,-122.54 63.71,-132.02 68.59,-127"/>
</g>
<!-- a2 -->
<g id="node3" class="node">
<title>a2</title>
<ellipse fill="white" stroke="white" cx="115" cy="-106" rx="27" ry="18"/>
<text text-anchor="middle" x="115" y="-100.95" font-family="Times,serif" font-size="14.00">a2</text>
</g>
<!-- a0&#45;&gt;a2 -->
<g id="edge2" class="edge">
<title>a0&#45;&gt;a2</title>
<path fill="none" stroke="black" d="M115,-159.7C115,-152.41 115,-143.73 115,-135.54"/>
<polygon fill="black" stroke="black" points="118.5,-135.62 115,-125.62 111.5,-135.62 118.5,-135.62"/>
</g>
<!-- a3 -->
<g id="node4" class="node">
<title>a3</title>
<ellipse fill="purple" stroke="purple" cx="187" cy="-106" rx="27" ry="18"/>
<text text-anchor="middle" x="187" y="-100.95" font-family="Times,serif" font-size="14.00">a3</text>
</g>
<!-- a0&#45;&gt;a3 -->
<g id="edge3" class="edge">
<title>a0&#45;&gt;a3</title>
<path fill="none" stroke="black" d="M129.92,-162.5C139.77,-152.92 152.86,-140.19 164.03,-129.34"/>
<polygon fill="black" stroke="black" points="166.29,-132.02 171.02,-122.54 161.41,-127 166.29,-132.02"/>
</g>
<!-- r0 -->
<g id="node5" class="node">
<title>r0</title>
<ellipse fill="white" stroke="white" cx="507" cy="-178" rx="27" ry="18"/>
<text text-anchor="middle" x="507" y="-172.95" font-family="Times,serif" font-size="14.00">r0</text>
</g>
<!-- b1 -->
<g id="node6" class="node">
<title>b1</title>
<ellipse fill="white" stroke="white" cx="399" cy="-106" rx="27" ry="18"/>
<text text-anchor="middle" x="399" y="-100.95" font-family="Times,serif" font-size="14.00">b1</text>
</g>
<!-- r0&#45;&gt;b1 -->
<g id="edge4" class="edge">
<title>r0&#45;&gt;b1</title>
<path fill="none" stroke="black" d="M488.19,-164.81C471.41,-153.93 446.61,-137.86 427.41,-125.42"/>
<polygon fill="black" stroke="black" points="429.52,-122.61 419.23,-120.11 425.72,-128.49 429.52,-122.61"/>
</g>
<!-- b2 -->
<g id="node7" class="node">
<title>b2</title>
<ellipse fill="white" stroke="white" cx="615" cy="-106" rx="27" ry="18"/>
<text text-anchor="middle" x="615" y="-100.95" font-family="Times,serif" font-size="14.00">b2</text>
</g>
<!-- r0&#45;&gt;b2 -->
<g id="edge5" class="edge">
<title>r0&#45;&gt;b2</title>
<path fill="none" stroke="black" d="M525.81,-164.81C542.59,-153.93 567.39,-137.86 586.59,-125.42"/>
<polygon fill="black" stroke="black" points="588.28,-128.49 594.77,-120.11 584.48,-122.61 588.28,-128.49"/>
</g>
<!-- b3 -->
<g id="node8" class="node">
<title>b3</title>
<ellipse fill="white" stroke="white" cx="543" cy="-106" rx="27" ry="18"/>
<text text-anchor="middle" x="543" y="-100.95" font-family="Times,serif" font-size="14.00">b3</text>
</g>
<!-- r0&#45;&gt;b3 -->
<g id="edge6" class="edge">
<title>r0&#45;&gt;b3</title>
<path fill="none" stroke="black" d="M515.35,-160.76C519.58,-152.55 524.81,-142.37 529.58,-133.09"/>
<polygon fill="black" stroke="black" points="532.54,-134.99 534,-124.49 526.32,-131.79 532.54,-134.99"/>
</g>
<!-- b4 -->
<g id="node9" class="node">
<title>b4</title>
<ellipse fill="white" stroke="white" cx="471" cy="-106" rx="27" ry="18"/>
<text text-anchor="middle" x="471" y="-100.95" font-family="Times,serif" font-size="14.00">b4</text>
</g>
<!-- r0&#45;&gt;b4 -->
<g id="edge7" class="edge">
<title>r0&#45;&gt;b4</title>
<path fill="none" stroke="black" d="M498.65,-160.76C494.42,-152.55 489.19,-142.37 484.42,-133.09"/>
<polygon fill="black" stroke="black" points="487.68,-131.79 480,-124.49 481.46,-134.99 487.68,-131.79"/>
</g>
<!-- r1 -->
<g id="node10" class="node">
<title>r1</title>
<ellipse fill="white" stroke="white" cx="400" cy="-178" rx="27" ry="18"/>
<text text-anchor="middle" x="400" y="-172.95" font-family="Times,serif" font-size="14.00">r1</text>
</g>
<!-- r1&#45;&gt;b4 -->
<g id="edge8" class="edge">
<title>r1&#45;&gt;b4</title>
<path fill="none" stroke="black" d="M414.71,-162.5C424.42,-152.92 437.34,-140.19 448.34,-129.34"/>
<polygon fill="black" stroke="black" points="450.57,-132.06 455.23,-122.55 445.65,-127.08 450.57,-132.06"/>
</g>
<!-- b5 -->
<g id="node11" class="node">
<title>b5</title>
<ellipse fill="white" stroke="white" cx="327" cy="-106" rx="27" ry="18"/>
<text text-anchor="middle" x="327" y="-100.95" font-family="Times,serif" font-size="14.00">b5</text>
</g>
<!-- r1&#45;&gt;b5 -->
<g id="edge9" class="edge">
<title>r1&#45;&gt;b5</title>
<path fill="none" stroke="black" d="M385.23,-162.83C375.2,-153.22 361.74,-140.31 350.28,-129.32"/>
<polygon fill="black" stroke="black" points="352.73,-126.83 343.09,-122.43 347.89,-131.88 352.73,-126.83"/>
</g>
<!-- c0 -->
<g id="node12" class="node">
<title>c0</title>
<ellipse fill="white" stroke="white" cx="765" cy="-178" rx="27" ry="18"/>
<text text-anchor="middle" x="765" y="-172.95" font-family="Times,serif" font-size="14.00">c0</text>
</g>
<!-- c1 -->
<g id="node13" class="node">
<title>c1</title>
<ellipse fill="white" stroke="white" cx="693" cy="-106" rx="27" ry="18"/>
<text text-anchor="middle" x="693" y="-100.95" font-family="Times,serif" font-size="14.00">c1</text>
</g>
<!-- c0&#45;&gt;c1 -->
<g id="edge10" class="edge">
<title>c0&#45;&gt;c1</title>
<path fill="none" stroke="black" d="M750.08,-162.5C740.23,-152.92 727.14,-140.19 715.97,-129.34"/>
<polygon fill="black" stroke="black" points="718.59,-127 708.98,-122.54 713.71,-132.02 718.59,-127"/>
</g>
<!-- c2 -->
<g id="node14" class="node">
<title>c2</title>
<ellipse fill="white" stroke="white" cx="765" cy="-106" rx="27" ry="18"/>
<text text-anchor="middle" x="765" y="-100.95" font-family="Times,serif" font-size="14.00">c2</text>
</g>
<!-- c0&#45;&gt;c2 -->
<g id="edge11" class="edge">
<title>c0&#45;&gt;c2</title>
<path fill="none" stroke="black" d="M765,-159.7C765,-152.41 765,-143.73 765,-135.54"/>
<polygon fill="black" stroke="black" points="768.5,-135.62 765,-125.62 761.5,-135.62 768.5,-135.62"/>
</g>
<!-- c3 -->
<g id="node15" class="node">
<title>c3</title>
<ellipse fill="white" stroke="white" cx="780" cy="-34" rx="27" ry="18"/>
<text text-anchor="middle" x="780" y="-28.95" font-family="Times,serif" font-size="14.00">c3</text>
</g>
<!-- c0&#45;&gt;c3 -->
<g id="edge12" class="edge">
<title>c0&#45;&gt;c3</title>
<path fill="none" stroke="black" d="M778.75,-162.07C786.96,-152.1 796.62,-138.25 801,-124 806.75,-105.31 805.24,-99.09 801,-80 799.6,-73.69 797.22,-67.21 794.55,-61.21"/>
<polygon fill="black" stroke="black" points="797.79,-59.86 790.25,-52.41 791.5,-62.94 797.79,-59.86"/>
</g>
<!-- c4 -->
<g id="node16" class="node">
<title>c4</title>
<ellipse fill="white" stroke="white" cx="703" cy="-34" rx="27" ry="18"/>
<text text-anchor="middle" x="703" y="-28.95" font-family="Times,serif" font-size="14.00">c4</text>
</g>
<!-- c1&#45;&gt;c4 -->
<g id="edge14" class="edge">
<title>c1&#45;&gt;c4</title>
<path fill="none" stroke="black" d="M695.47,-87.7C696.53,-80.32 697.78,-71.52 698.96,-63.25"/>
<polygon fill="black" stroke="black" points="702.39,-64 700.34,-53.6 695.46,-63.01 702.39,-64"/>
</g>
<!-- c2&#45;&gt;c3 -->
<g id="edge13" class="edge">
<title>c2&#45;&gt;c3</title>
<path fill="none" stroke="black" d="M768.71,-87.7C770.29,-80.32 772.17,-71.52 773.95,-63.25"/>
<polygon fill="black" stroke="black" points="777.34,-64.1 776.02,-53.58 770.5,-62.63 777.34,-64.1"/>
</g>
<!-- c2&#45;&gt;c4 -->
<g id="edge15" class="edge">
<title>c2&#45;&gt;c4</title>
<path fill="none" stroke="black" d="M751.85,-90.15C743.63,-80.87 732.87,-68.73 723.54,-58.19"/>
<polygon fill="black" stroke="black" points="726.38,-56.12 717.13,-50.96 721.14,-60.76 726.38,-56.12"/>
</g>
<!-- p0 -->
<g id="node17" class="node">
<title>p0</title>
<ellipse fill="none" stroke="black" cx="257" cy="-178" rx="27" ry="18"/>
<text text-anchor="middle" x="257" y="-172.95" font-family="Times,serif" font-size="14.00">p0</text>
</g>
<!-- p0&#45;&gt;a3 -->
<g id="edge16" class="edge">
<title>p0&#45;&gt;a3</title>
<path fill="none" stroke="black" d="M242.5,-162.5C232.92,-152.92 220.19,-140.19 209.34,-129.34"/>
<polygon fill="black" stroke="black" points="212.1,-127.15 202.56,-122.56 207.15,-132.1 212.1,-127.15"/>
</g>
<!-- p0&#45;&gt;b1 -->
<g id="edge17" class="edge">
<title>p0&#45;&gt;b1</title>
<path fill="none" stroke="black" d="M277.26,-165.68C280.82,-163.75 284.5,-161.79 288,-160 295.63,-156.09 337.36,-136.23 367.41,-121.97"/>
<polygon fill="black" stroke="black" points="368.57,-125.3 376.1,-117.85 365.57,-118.97 368.57,-125.3"/>
</g>
</g>
</svg>
